<svg xmlns="http://www.w3.org/2000/svg" viewBox="0 0 40.444 42"><defs><style>.a{fill:#e0895a;}</style></defs><path class="a" d="M18.667,31.889a11.651,11.651,0,0,1,18.667-9.318V0H31.111V3.111h1.556V7.778H28V3.111h1.556V0H23.333V3.111h1.556V7.778H20.222V3.111h1.556V0H15.556V3.111h1.556V7.778H12.444V3.111H14V0H7.778V3.111H9.333V7.778H4.667V3.111H6.222V0H0V40.444H22.42A11.623,11.623,0,0,1,18.667,31.889Z"/><rect class="a" width="1.556" height="1.556" transform="translate(29.556 4.667)"/><rect class="a" width="1.556" height="1.556" transform="translate(21.778 4.667)"/><rect class="a" width="1.556" height="1.556" transform="translate(14 4.667)"/><rect class="a" width="1.556" height="1.556" transform="translate(6.222 4.667)"/><path class="a" d="M23.111,14A10.111,10.111,0,1,0,33.222,24.111,10.111,10.111,0,0,0,23.111,14Zm.778,10.889v6.222H22.333V24.889H16.111V23.333h6.222V17.111h1.556v6.222h6.222v1.556Z" transform="translate(7.222 7.778)"/></svg>