<svg xmlns="http://www.w3.org/2000/svg" viewBox="0 0 232.737 315.077"><defs><style>.a{fill:none;stroke:#e68923;stroke-linejoin:round;stroke-width:2px;}.b{fill:#e68923;}</style></defs><g transform="translate(-1395.845 -283.77)"><g transform="translate(1522.887 284.77)"><g transform="translate(0 0)"><path class="a" d="M129.93,46.011A14.809,14.809,0,0,0,115.46,33.774H57.569c-2.828,0-8.8,5.547-12.1,12.237C40.787,55.5,47.407,40.2,25.516,105.277l13.968,6.664L58.96,63.75H62V213.6H84.484v-86.38h4.052V213.6h22.5V63.75h3.037v54.282H130.21V47.885A7.7,7.7,0,0,0,129.93,46.011Z" transform="translate(-25.516 39.6)"/><ellipse class="a" cx="33.82" cy="33.82" rx="33.82" ry="33.82" transform="translate(26.8)"/></g></g><g transform="translate(1396.845 344.643)"><path class="a" d="M25.43,46.011A14.8,14.8,0,0,1,39.889,33.774H97.735c2.825,0,8.791,5.547,12.09,12.237,3.711,7.522,10.261,30.348,10.261,30.348l22.968-2.093,9.184,7.7S117.088,98.1,111.533,94.889,96.345,63.75,96.345,63.75H93.31V213.6H70.841v-86.38H66.792V213.6H44.306V63.75H41.271v54.282H25.151V47.885A7.7,7.7,0,0,1,25.43,46.011Z" transform="translate(-25.151 39.6)"/><ellipse class="a" cx="33.794" cy="33.82" rx="33.794" ry="33.82" transform="translate(10.245)"/></g><g transform="translate(1488.116 419.122)"><g transform="matrix(0.53, -0.848, 0.848, 0.53, 0, 19.1)"><path class="b" d="M2.834,8.844H14.318L14,.844c0-.514.05-.806.646-.806L16.987,0c.6,0,.666.552.666,1.066l.1,7.778h1.939A3.059,3.059,0,0,1,22.522,12.1V49.929a3.174,3.174,0,0,1-2.834,3.253H2.834A3.174,3.174,0,0,1,0,49.929V12.1A3.059,3.059,0,0,1,2.834,8.844Zm12.529,2.225H2.834A.925.925,0,0,0,1.939,12.1V49.929a.879.879,0,0,0,.895.856H19.688a.879.879,0,0,0,.895-.856V12.1a.925.925,0,0,0-.895-1.027H16.7c-.3,0-.447-.171-.746-.342A1.081,1.081,0,0,1,15.363,11.069ZM7.756,47.361h7.159c1.193,0,1.193,2.4,0,2.4H7.756C6.413,49.758,6.413,47.361,7.756,47.361Zm9.4-5.82a2.3,2.3,0,0,1,2.088,2.4,2.257,2.257,0,0,1-2.088,2.225,2.153,2.153,0,0,1-2.088-2.225A2.2,2.2,0,0,1,17.152,41.541Zm-5.668,0a2.2,2.2,0,0,1,2.088,2.4,2.153,2.153,0,0,1-2.088,2.225A2.257,2.257,0,0,1,9.4,43.937a2.222,2.222,0,0,1,.746-1.712A2.1,2.1,0,0,1,11.485,41.541Zm-5.519,0a2.3,2.3,0,0,1,2.088,2.4,2.153,2.153,0,0,1-2.088,2.225,2.257,2.257,0,0,1-2.088-2.225A2.3,2.3,0,0,1,5.966,41.541Zm11.186-5.992a2.257,2.257,0,0,1,2.088,2.225,2.3,2.3,0,0,1-2.088,2.4,2.2,2.2,0,0,1-2.088-2.4A2.153,2.153,0,0,1,17.152,35.549Zm-5.668,0a2.153,2.153,0,0,1,2.088,2.225,2.2,2.2,0,0,1-2.088,2.4,2.3,2.3,0,0,1-2.088-2.4A2.257,2.257,0,0,1,11.485,35.549Zm-5.519,0a2.257,2.257,0,0,1,2.088,2.225,2.3,2.3,0,0,1-2.088,2.4,2.3,2.3,0,0,1-2.088-2.4A2.257,2.257,0,0,1,5.966,35.549Zm11.186-5.992a2.257,2.257,0,0,1,2.088,2.225,2.3,2.3,0,0,1-2.088,2.4,2.2,2.2,0,0,1-2.088-2.4A2.153,2.153,0,0,1,17.152,29.557Zm-5.668,0a2.153,2.153,0,0,1,2.088,2.225,2.2,2.2,0,0,1-2.088,2.4,2.3,2.3,0,0,1-2.088-2.4A2.257,2.257,0,0,1,11.485,29.557Zm-5.519,0a2.153,2.153,0,0,1,2.088,2.225,2.2,2.2,0,0,1-2.088,2.4,2.3,2.3,0,0,1-2.088-2.4A2.257,2.257,0,0,1,5.966,29.557Zm.3-15.065H16.7A2.715,2.715,0,0,1,19.24,17.4v8.046a2.828,2.828,0,0,1-2.536,2.91H6.264a2.828,2.828,0,0,1-2.536-2.91V17.4A2.715,2.715,0,0,1,6.264,14.493ZM16.7,16.718H6.264a.694.694,0,0,0-.6.685v8.046a.694.694,0,0,0,.6.685H16.7a.694.694,0,0,0,.6-.685V17.4A.694.694,0,0,0,16.7,16.718Z" transform="translate(0 0)"/></g></g></g></svg>