<svg xmlns="http://www.w3.org/2000/svg" viewBox="0 0 20 26.667"><defs><style>.a{fill:#e0895a;}</style></defs><path class="a" d="M-490.5,508.5v26.667h6.667v-4h6.667v4h6.667V508.5Zm5.333,17.333h-2.667v-2.667h2.667Zm0-4h-2.667v-2.667h2.667Zm0-4h-2.667v-2.667h2.667Zm0-4h-2.667v-2.667h2.667Zm4,12h-2.667v-2.667h2.667Zm0-4h-2.667v-2.667h2.667Zm0-4h-2.667v-2.667h2.667Zm0-4h-2.667v-2.667h2.667Zm4,12h-2.667v-2.667h2.667Zm0-4h-2.667v-2.667h2.667Zm0-4h-2.667v-2.667h2.667Zm0-4h-2.667v-2.667h2.667Zm4,12h-2.667v-2.667h2.667Zm0-4h-2.667v-2.667h2.667Zm0-4h-2.667v-2.667h2.667Zm0-4h-2.667v-2.667h2.667Z" transform="translate(490.5 -508.5)"/></svg>