<svg xmlns="http://www.w3.org/2000/svg" viewBox="0 0 46.525 41.5"><defs><style>.a{fill:#e0895a;}</style></defs><g transform="translate(-2 -535)"><path class="a" d="M47.514,12H3.011A1.014,1.014,0,0,0,2,13.011V43.86a1.014,1.014,0,0,0,1.011,1.011H32.818l-.288-.9-1.462-1.062a1.021,1.021,0,0,1-.369-1.133l.561-1.714L30.7,38.353a1.021,1.021,0,0,1,.369-1.133l1.462-1.062.556-1.714a1.011,1.011,0,0,1,.961-.7h1.805l1.456-1.062a1.017,1.017,0,0,1,1.193,0l1.456,1.062h1.805a1.011,1.011,0,0,1,.961.7l.556,1.714,1.462,1.062a1.021,1.021,0,0,1,.369,1.133l-.561,1.714.561,1.714a1.021,1.021,0,0,1-.369,1.133l-1.462,1.062-.288.9h4.521a1.014,1.014,0,0,0,1.011-1.011V13.011A1.014,1.014,0,0,0,47.514,12ZM16.666,17.057h17.7a1.011,1.011,0,1,1,0,2.023h-17.7a1.011,1.011,0,0,1,0-2.023Zm8.091,18.206H10.091a1.011,1.011,0,0,1,0-2.023H24.757a1.011,1.011,0,1,1,0,2.023ZM40.434,29.7H10.091a1.011,1.011,0,1,1,0-2.023H40.434a1.011,1.011,0,0,1,0,2.023Zm0-5.057H10.091a1.011,1.011,0,1,1,0-2.023H40.434a1.011,1.011,0,0,1,0,2.023Z" transform="translate(0 523)"/><path class="a" d="M73,78,73,78.005,72.99,78Z" transform="translate(-35.089 490.377)"/><path class="a" d="M73.091,79.96v6.119a1.012,1.012,0,0,1-1.462.905l-2.584-1.29-2.584,1.29a1,1,0,0,1-.981-.046,1.01,1.01,0,0,1-.48-.86V79.96a.757.757,0,0,0,.187.02h1.805l1.456,1.062a1.023,1.023,0,0,0,1.193,0L71.1,79.98H72.9A.757.757,0,0,0,73.091,79.96Z" transform="translate(-31.14 489.408)"/><path class="a" d="M72.684,62.619l.43,1.33-1.128.819a1,1,0,0,0-.369.506l-.268.824-.162.506h-1.4a1,1,0,0,0-.592.192l-1.128.819h-.01L66.929,66.8a1,1,0,0,0-.592-.192h-1.4l-.162-.506-.268-.824a1,1,0,0,0-.369-.506l-1.128-.819.43-1.33a1.022,1.022,0,0,0,0-.627l-.43-1.33,1.128-.819a1,1,0,0,0,.369-.506l.43-1.33h1.4a1,1,0,0,0,.592-.192l1.133-.824,1.133.824a1,1,0,0,0,.592.192h1.4l.43,1.33a1,1,0,0,0,.369.506l1.128.819-.43,1.33A1.021,1.021,0,0,0,72.684,62.619Z" transform="translate(-30.156 500.762)"/><path class="a" d="M73,78,73,78.005,72.99,78Z" transform="translate(-35.089 490.377)"/></g></svg>