<svg xmlns="http://www.w3.org/2000/svg" xmlns:xlink="http://www.w3.org/1999/xlink" viewBox="0 0 68.678 62.723"><defs><style>.a{fill:#e0895a;}.b{filter:url(#a);}</style><filter id="a" x="0" y="0" width="68.678" height="62.723" filterUnits="userSpaceOnUse"><feOffset dy="3" input="SourceAlpha"/><feGaussianBlur stdDeviation="3" result="b"/><feFlood flood-opacity="0.161"/><feComposite operator="in" in2="b"/><feComposite in="SourceGraphic"/></filter></defs><g transform="translate(-109.9 -1124)"><g class="b" transform="matrix(1, 0, 0, 1, 109.9, 1124)"><path class="a" d="M28.082,42.367a14.772,14.772,0,0,1,24.5-11.124V18.6a2.9,2.9,0,0,0-2.922-2.922H38.363V13.937A5.335,5.335,0,0,0,33.026,8.6H21.34A5.335,5.335,0,0,0,16,13.937v1.742H4.822A2.9,2.9,0,0,0,1.9,18.6V50.4a2.9,2.9,0,0,0,2.922,2.922H32.914A14.854,14.854,0,0,1,28.082,42.367ZM19.317,13.937A2.111,2.111,0,0,1,21.4,11.859h11.63A2.111,2.111,0,0,1,35.1,13.937v1.742H19.317Z" transform="translate(7.1 -2.6)"/></g><path class="a" d="M64.941,46.1A12.641,12.641,0,1,0,77.583,58.741,12.66,12.66,0,0,0,64.941,46.1ZM66.4,65.259H63.481v-2.7H66.4Zm0-4.663H63.481V52.336H66.4Z" transform="translate(94.917 1104.969)"/></g></svg>