<svg xmlns="http://www.w3.org/2000/svg" viewBox="0 0 30 30"><defs><style>.a{fill:#e0895a;}</style></defs><path class="a" d="M20,5A15,15,0,1,0,35,20,14.98,14.98,0,0,0,20,5Zm4.167,11.667a.833.833,0,0,1,0,1.667h-.933a4.176,4.176,0,0,1-4.067,3.333H17.833L21.4,25.233A.837.837,0,0,1,20.2,26.4l-5-5a.819.819,0,0,1-.167-.9A.842.842,0,0,1,15.8,20h3.333A2.53,2.53,0,0,0,21.5,18.333H15.833a.833.833,0,0,1,0-1.667h5.7A2.5,2.5,0,0,0,19.167,15H15.833a.833.833,0,1,1,0-1.667h8.333a.833.833,0,0,1,0,1.667H22.5a3.94,3.94,0,0,1,.733,1.667Z" transform="translate(-5 -5)"/></svg>