<svg xmlns="http://www.w3.org/2000/svg" viewBox="0 0 136.705 310.597"><defs><style>.a,.c,.d{fill:none;stroke:#e68923;stroke-width:2px;}.a,.b,.c{stroke-linejoin:round;}.b{fill:#fff;}.c,.d{stroke-linecap:round;}.e,.f{stroke:none;}.f{fill:#e68923;}</style></defs><g transform="translate(-31.008 -5.301)"><g transform="translate(18.67 -10.091)"><circle class="a" cx="36.827" cy="36.827" r="36.827" transform="translate(63.783 49.338)"/><path class="a" d="M161.658,81.387a16.075,16.075,0,0,0-15.707-13.282H83.114l-35.16-9.131L65.631,35.565,62.812,23.488S23.434,46.545,31.844,65.875,87.92,90.939,87.92,90.939V263.3h24.409v-93.76h4.4V263.3h24.426V100.643h3.3v58.92h17.512V83.422A8.353,8.353,0,0,0,161.658,81.387Z" transform="translate(-13.918 61.689)"/><g class="b" transform="matrix(0.966, -0.259, 0.259, 0.966, 49.581, 78.721)"><path class="e" d="M 7.675499439239502 41.27811813354492 L 0.999999463558197 41.27811813354492 L 0.999999463558197 0.9999990463256836 L 7.675499439239502 0.9999990463256836 L 7.675499439239502 41.27811813354492 Z"/><path class="f" d="M 1.999999523162842 2 L 1.999999523162842 40.27811813354492 L 6.675499439239502 40.27811813354492 L 6.675499439239502 2 L 1.999999523162842 2 M -9.5367431640625e-07 0 L 8.67549991607666 0 L 8.67549991607666 42.27811813354492 L -9.5367431640625e-07 42.27811813354492 L -9.5367431640625e-07 0 Z"/></g><path class="c" d="M5062.493-14814.256s-.181-5.348,6.157-7.6a10.215,10.215,0,0,1,10.391,1.734" transform="translate(-5028.313 14867.093)"/><path class="c" d="M5062.493-14807.672s-.321-9.607,11.044-13.633,18.643,3.119,18.643,3.119" transform="translate(-5039.22 14855.124)"/><path class="c" d="M5062.494-14802.076s-.442-13.223,15.2-18.766,25.665,4.291,25.665,4.291" transform="translate(-5049.15 14838.953)"/><line class="d" x1="5.114" y1="16.755" transform="translate(46.72 61.879)"/></g></g></svg>