<svg xmlns="http://www.w3.org/2000/svg" viewBox="0 0 31.25 40"><defs><style>.a{fill:#e0895a;}</style></defs><g transform="translate(-1337 -184)"><path class="a" d="M15.469,0A1.445,1.445,0,0,0,14,1.531V38.406A1.5,1.5,0,0,0,15.469,40H43.594a1.655,1.655,0,0,0,1.656-1.594V9.375H38.781a2.957,2.957,0,0,1-2.906-3.062V0Zm8.875,11.844a4.219,4.219,0,1,1-4.219,4.219A4.241,4.241,0,0,1,24.344,11.844ZM38.906,26.406a4.219,4.219,0,1,1-4.219-4.219A4.241,4.241,0,0,1,38.906,26.406ZM36.5,12.531a1.3,1.3,0,0,1,1.781,0,1.234,1.234,0,0,1,.375.875,1.183,1.183,0,0,1-.375.875L22.625,29.938a1.234,1.234,0,0,1-.875.375,1.183,1.183,0,0,1-.875-.375,1.153,1.153,0,0,1-.406-.875,1.183,1.183,0,0,1,.375-.875Z" transform="translate(1323 184)"/><path class="a" d="M76.25,78.9a1.65,1.65,0,1,0,1.65,1.65A1.666,1.666,0,0,0,76.25,78.9Z" transform="translate(1281.474 129.892)"/><path class="a" d="M43.15,49.1a1.65,1.65,0,1,0-1.65-1.65A1.666,1.666,0,0,0,43.15,49.1Z" transform="translate(1304.156 152.591)"/><path class="a" d="M96.216,8.834,90,2.5V7.744a1.037,1.037,0,0,0,.972,1.119h5.244Z" transform="translate(1271.18 182.236)"/></g></svg>