<svg xmlns="http://www.w3.org/2000/svg" xmlns:xlink="http://www.w3.org/1999/xlink" viewBox="0 0 51.333 51.333"><defs><style>.a{fill:#e0895a;}.b{filter:url(#a);}</style><filter id="a" x="0" y="0" width="51.333" height="51.333" filterUnits="userSpaceOnUse"><feOffset dy="3" input="SourceAlpha"/><feGaussianBlur stdDeviation="3" result="b"/><feFlood flood-opacity="0.161"/><feComposite operator="in" in2="b"/><feComposite in="SourceGraphic"/></filter></defs><g class="b" transform="matrix(1, 0, 0, 1, 0, 0)"><path class="a" d="M59.333,42.667A16.667,16.667,0,1,0,76,59.333,16.667,16.667,0,0,0,59.333,42.667ZM61.8,68.985a1.636,1.636,0,0,1-.318.5,1.379,1.379,0,0,1-.485.348,1.667,1.667,0,0,1-1.227,0,1.379,1.379,0,0,1-.485-.348,1.636,1.636,0,0,1-.318-.5,1.523,1.523,0,1,1,2.833,0ZM65.394,56.3a5.076,5.076,0,0,1-.621,1.379,5.651,5.651,0,0,1-.924,1.076l-.939.818q-.47.379-.788.682a2.136,2.136,0,0,0-.364.455,1.621,1.621,0,0,0-.182.485,4.393,4.393,0,0,0,0,.879v1.515a1.212,1.212,0,0,1-2.424,0V62.076a6.712,6.712,0,0,1,.121-1.379,4.03,4.03,0,0,1,.455-1.2,4.546,4.546,0,0,1,.788-.985c.258-.258.576-.53.924-.818l.848-.742a3.227,3.227,0,0,0,.53-.621,2.666,2.666,0,0,0,.318-.727,3.727,3.727,0,0,0,.121-1.03,3.03,3.03,0,0,0-.318-1.3,2.833,2.833,0,0,0-.712-.955,3.03,3.03,0,0,0-1.091-.591,4.742,4.742,0,0,0-1.515-.227,3.652,3.652,0,0,0-2.439.8,3.758,3.758,0,0,0-1.258,2.288,1.212,1.212,0,1,1-2.379-.455,6.849,6.849,0,0,1,.742-2.091,5.788,5.788,0,0,1,3.227-2.667,6.652,6.652,0,0,1,2.167-.348,7.167,7.167,0,0,1,2.212.333,5.5,5.5,0,0,1,1.924,1.061,5.242,5.242,0,0,1,1.318,1.758,5.47,5.47,0,0,1,.5,2.348A6.061,6.061,0,0,1,65.394,56.3Z" transform="translate(-33.67 -36.67)"/></g></svg>