<svg xmlns="http://www.w3.org/2000/svg" viewBox="0 0 42.5 34.731"><defs><style>.a{fill:#e0895a;}</style></defs><g transform="translate(-3.5 -12)"><path class="a" d="M44.629,12H4.871A1.371,1.371,0,0,0,3.5,13.371V45.36a1.371,1.371,0,0,0,1.371,1.371H44.629A1.371,1.371,0,0,0,46,45.36V13.371A1.371,1.371,0,0,0,44.629,12ZM30.691,39.419,27.9,41.75l-3.382-4.067-2.513,4.341L17.484,26.4l14.532,7.266-4.753,1.691ZM43.258,22.054H6.242V14.742H43.258Z"/><circle class="a" cx="2.285" cy="2.285" r="2.285" transform="translate(14.011 16.113)"/><circle class="a" cx="2.285" cy="2.285" r="2.285" transform="translate(19.952 16.113)"/><circle class="a" cx="2.285" cy="2.285" r="2.285" transform="translate(8.07 16.113)"/></g></svg>